name C:\Users\antoi\Documents\MyRepositories\upper-imu-dc\Results\main_tracking\Case_97\kinematics.mot
datacolumns 43
datarows 12
range 4.62000000 4.84000000
endheader 
time	clav_prot	clav_elev	scapula_abduction	scapula_elevation	scapula_upward_rot	scapula_winging	plane_elv	shoulder_elv	axial_rot	TrapeziusScapula_M/activation	TrapeziusScapula_S/activation	TrapeziusScapula_I/activation	TrapeziusClavicle_S/activation	SerratusAnterior_I/activation	SerratusAnterior_M/activation	SerratusAnterior_S/activation	Rhomboideus_S/activation	Rhomboideus_I/activation	LevatorScapulae/activation	Coracobrachialis/activation	DeltoideusClavicle_A/activation	DeltoideusScapula_P/activation	DeltoideusScapula_M/activation	LatissimusDorsi_S/activation	LatissimusDorsi_M/activation	LatissimusDorsi_I/activation	PectoralisMajorClavicle_S/activation	PectoralisMajorThorax_I/activation	PectoralisMajorThorax_M/activation	TeresMajor/activation	Infraspinatus_I/activation	Infraspinatus_S/activation	PectoralisMinor/activation	TeresMinor/activation	Subscapularis_S/activation	Subscapularis_M/activation	Subscapularis_I/activation	Supraspinatus_P/activation	Supraspinatus_A/activation	TRIlong/activation	BIC_long/activation	BIC_brevis/activation	
          4.62000000	        -39.13577510	          2.88799641	        -26.50752540	         -4.76425922	         35.87032361	         -6.04599575	         12.32814210	         66.29442748	          1.58415999	          0.01614199	          0.06216670	          0.01000099	          0.03507214	          0.06586279	          0.08064334	          0.01157855	          0.01577699	          0.01000271	          0.02134729	          0.05421858	          0.09901129	          0.01000007	          0.10648358	          0.01000013	          0.01000006	          0.01000007	          0.03915157	          0.01000007	          0.02704331	          0.01000012	          0.02955090	          0.02210972	          0.01000010	          0.01000112	          0.02570753	          0.01672797	          0.01000141	          0.04424141	          0.07487428	          0.01000004	          0.06619792	          0.04795360	
          4.64000000	        -39.30871673	          2.91324698	        -26.59551312	         -4.79804493	         36.12016271	         -6.18471937	         12.74847753	         66.94652781	          1.41999584	          0.01623188	          0.06244139	          0.01000098	          0.03496653	          0.06597440	          0.08035300	          0.01162498	          0.01579365	          0.01000280	          0.02113884	          0.05427665	          0.09921981	          0.01000007	          0.10656772	          0.01000013	          0.01000006	          0.01000008	          0.03889697	          0.01000008	          0.02675579	          0.01000014	          0.02936293	          0.02196672	          0.01000010	          0.01000120	          0.02580914	          0.01676794	          0.01000144	          0.04422568	          0.07466006	          0.01000004	          0.06582977	          0.04804956	
          4.66000000	        -39.48335269	          2.94039937	        -26.68509424	         -4.83045679	         36.37137746	         -6.32558881	         13.17324378	         67.58384000	          1.26582798	          0.01626605	          0.06270561	          0.01000093	          0.03487884	          0.06599390	          0.08003284	          0.01148217	          0.01577613	          0.01000295	          0.02097088	          0.05428248	          0.09934717	          0.01000007	          0.10656920	          0.01000012	          0.01000006	          0.01000008	          0.03861748	          0.01000008	          0.02638178	          0.01000016	          0.02918464	          0.02184382	          0.01000010	          0.01000120	          0.02590246	          0.01679753	          0.01000144	          0.04417980	          0.07436802	          0.01000004	          0.06541095	          0.04811000	
          4.68000000	        -39.66010814	          2.96954493	        -26.77662021	         -4.86152128	         36.62438981	         -6.46894300	         13.60212405	         68.20572851	          1.12129280	          0.01626155	          0.06293975	          0.01000108	          0.03475562	          0.06599997	          0.07964742	          0.01153311	          0.01578985	          0.01000221	          0.02073163	          0.05431160	          0.09941975	          0.01000008	          0.10641188	          0.01000014	          0.01000007	          0.01000008	          0.03832389	          0.01000007	          0.02600283	          0.01000013	          0.02903970	          0.02168173	          0.01000011	          0.01000124	          0.02600721	          0.01678438	          0.01000138	          0.04414772	          0.07411898	          0.01000004	          0.06498328	          0.04818579	
          4.70000000	        -39.83978413	          2.99980431	        -26.86995584	         -4.89211955	         36.88060649	         -6.61514521	         14.03407634	         68.81096578	          0.98295667	          0.01633072	          0.06329735	          0.01000096	          0.03465144	          0.06614142	          0.07935753	          0.01141397	          0.01573766	          0.01000240	          0.02046075	          0.05430368	          0.09956077	          0.01000007	          0.10650241	          0.01000012	          0.01000006	          0.01000008	          0.03804625	          0.01000009	          0.02561480	          0.01000017	          0.02894345	          0.02160622	          0.01000010	          0.01000119	          0.02604627	          0.01673665	          0.01000142	          0.04411602	          0.07381933	          0.01000005	          0.06457268	          0.04826205	
          4.72000000	        -40.02327780	          3.02996966	        -26.96448967	         -4.92345854	         37.14211303	         -6.76461199	         14.46759069	         69.39853241	          0.84610865	          0.01629697	          0.06350428	          0.01000116	          0.03452924	          0.06624078	          0.07906898	          0.01136035	          0.01568358	          0.01000168	          0.02017556	          0.05454672	          0.09985816	          0.01000007	          0.10622789	          0.01000012	          0.01000006	          0.01000007	          0.03789959	          0.01000007	          0.02542413	          0.01000014	          0.02886874	          0.02144147	          0.01000010	          0.01000112	          0.02614887	          0.01671782	          0.01000138	          0.04413805	          0.07368252	          0.01000004	          0.06425946	          0.04851988	
          4.74000000	        -40.21113605	          3.05869816	        -27.05919124	         -4.95676368	         37.41077104	         -6.91748902	         14.90147107	         69.96711959	          0.70626308	          0.01624576	          0.06375516	          0.01000144	          0.03442991	          0.06644674	          0.07893115	          0.01122239	          0.01558380	          0.01000114	          0.01987751	          0.05496059	          0.10041128	          0.01000007	          0.10604153	          0.01000016	          0.01000007	          0.01000008	          0.03788697	          0.01000008	          0.02539562	          0.01000013	          0.02881022	          0.02130025	          0.01000012	          0.01000149	          0.02626940	          0.01672257	          0.01000135	          0.04422591	          0.07367016	          0.01000004	          0.06409781	          0.04893320	
          4.76000000	        -40.40337414	          3.08568139	        -27.15283115	         -4.99242409	         37.68807877	         -7.07395165	         15.33535276	         70.51581786	          0.56099254	          0.01616341	          0.06411082	          0.01000093	          0.03440286	          0.06686059	          0.07908019	          0.01098294	          0.01547000	          0.01000298	          0.01965512	          0.05567309	          0.10142848	          0.01000009	          0.10609157	          0.01000013	          0.01000007	          0.01000009	          0.03807210	          0.01000010	          0.02560141	          0.01000021	          0.02873021	          0.02117572	          0.01000011	          0.01000058	          0.02646449	          0.01674230	          0.01000141	          0.04447757	          0.07400209	          0.01000006	          0.06426642	          0.04960142	
          4.78000000	        -40.59938894	          3.11127793	        -27.24386897	         -5.03022376	         37.97499070	         -7.23399304	         15.76961462	         71.04466977	          0.41051233	          0.01587274	          0.06420621	          0.01000169	          0.03430392	          0.06702684	          0.07896871	          0.01100415	          0.01540754	          0.01000105	          0.01938127	          0.05637446	          0.10212503	          0.01000007	          0.10554140	          0.01000014	          0.01000007	          0.01000008	          0.03819399	          0.01000008	          0.02580601	          0.01000015	          0.02862412	          0.02091591	          0.01000011	          0.01000104	          0.02670740	          0.01679032	          0.01000135	          0.04465135	          0.07422997	          0.01000004	          0.06425380	          0.05021712	
          4.80000000	        -40.79809419	          3.13607303	        -27.33105936	         -5.06956792	         38.27119493	         -7.39719958	         16.20502277	         71.55322226	          0.25720311	          0.01565937	          0.06443519	          0.01000101	          0.03422182	          0.06731739	          0.07903572	          0.01107164	          0.01534921	          0.01000131	          0.01910735	          0.05713069	          0.10302055	          0.01000007	          0.10530845	          0.01000016	          0.01000007	          0.01000009	          0.03839017	          0.01000009	          0.02609861	          0.01000016	          0.02849796	          0.02067277	          0.01000012	          0.01000188	          0.02696063	          0.01682386	          0.01000139	          0.04489371	          0.07457781	          0.01000005	          0.06436593	          0.05090623	
          4.82000000	        -40.99824120	          3.16163931	        -27.41363003	         -5.10908959	         38.57586495	         -7.56333360	         16.64312483	         72.04153426	          0.10560004	          0.01544895	          0.06470622	          0.01000161	          0.03413861	          0.06757715	          0.07909367	          0.01108559	          0.01529470	          0.01000138	          0.01887742	          0.05778469	          0.10381043	          0.01000007	          0.10513549	          0.01000014	          0.01000007	          0.01000008	          0.03856287	          0.01000011	          0.02637389	          0.01000020	          0.02832873	          0.02047209	          0.01000011	          0.01000003	          0.02717662	          0.01684408	          0.01000144	          0.04509791	          0.07480052	          0.01000005	          0.06442135	          0.05153973	
          4.84000000	        -41.19861257	          3.18969107	        -27.49110242	         -5.14729993	         38.88791925	         -7.73217660	         17.08557812	         72.51005934	         -0.03905736	          0.01512151	          0.06492976	          0.01000158	          0.03406032	          0.06772230	          0.07915298	          0.01112881	          0.01525932	          0.01000116	          0.01869014	          0.05846528	          0.10457051	          0.01000008	          0.10485033	          0.01000018	          0.01000008	          0.01000009	          0.03876008	          0.01000008	          0.02668714	          0.01000015	          0.02817110	          0.02020285	          0.01000014	          0.01000174	          0.02743556	          0.01692385	          0.01000133	          0.04527905	          0.07501449	          0.01000005	          0.06443501	          0.05218382	
